<?xml version="1.0" encoding="UTF-8" standalone="no"?><svg xmlns="http://www.w3.org/2000/svg" xmlns:xlink="http://www.w3.org/1999/xlink" contentStyleType="text/css" height="398px" preserveAspectRatio="none" style="width:552px;height:398px;background:#FFFFFF;" version="1.1" viewBox="0 0 552 398" width="552px" zoomAndPan="magnify"><defs/><g><!--MD5=[0b9655ced653f2bb9d2b0eaed8d6dd26]
class Calculator1--><g id="elem_Calculator1"><rect codeLine="2" fill="#F1F1F1" height="206.4844" id="Calculator1" rx="2.5" ry="2.5" style="stroke:#181818;stroke-width:0.5;" width="207" x="49" y="7"/><ellipse cx="112.25" cy="23" fill="#ADD1B2" rx="11" ry="11" style="stroke:#181818;stroke-width:1.0;"/><path d="M115.0156,18.875 Q115.1719,18.6563 115.3594,18.5469 Q115.5469,18.4375 115.7656,18.4375 Q116.1406,18.4375 116.375,18.6953 Q116.6094,18.9531 116.6094,19.5625 L116.6094,21.0156 Q116.6094,21.625 116.375,21.8906 Q116.1406,22.1563 115.7656,22.1563 Q115.4219,22.1563 115.2188,21.9531 Q115.0156,21.7656 114.9063,21.25 Q114.8594,20.8906 114.6719,20.7031 Q114.3438,20.3281 113.7344,20.1094 Q113.125,19.8906 112.5,19.8906 Q111.7344,19.8906 111.1016,20.2188 Q110.4688,20.5469 109.9766,21.2969 Q109.4844,22.0469 109.4844,23.0781 L109.4844,24.1719 Q109.4844,25.4063 110.375,26.2266 Q111.2656,27.0469 112.8594,27.0469 Q113.7969,27.0469 114.4531,26.7969 Q114.8438,26.6406 115.2656,26.2031 Q115.5313,25.9375 115.6797,25.8594 Q115.8281,25.7813 116.0313,25.7813 Q116.3594,25.7813 116.6172,26.0391 Q116.875,26.2969 116.875,26.6406 Q116.875,26.9844 116.5313,27.3906 Q116.0313,27.9688 115.2344,28.2969 Q114.1563,28.75 112.8594,28.75 Q111.3438,28.75 110.1406,28.125 Q109.1563,27.625 108.4688,26.5547 Q107.7813,25.4844 107.7813,24.2031 L107.7813,23.0469 Q107.7813,21.7188 108.3984,20.5703 Q109.0156,19.4219 110.1094,18.8047 Q111.2031,18.1875 112.4375,18.1875 Q113.1719,18.1875 113.8203,18.3516 Q114.4688,18.5156 115.0156,18.875 Z " fill="#000000"/><text fill="#000000" font-family="sans-serif" font-size="14" lengthAdjust="spacing" textLength="72" x="132.75" y="28.7285">Calculator1</text><line style="stroke:#181818;stroke-width:0.5;" x1="50" x2="255" y1="39" y2="39"/><rect fill="none" height="6" style="stroke:#C82930;stroke-width:1.0;" width="6" x="57" y="50.3047"/><text fill="#000000" font-family="sans-serif" font-size="14" lengthAdjust="spacing" textLength="63" x="69" y="57.5332">double _a</text><rect fill="none" height="6" style="stroke:#C82930;stroke-width:1.0;" width="6" x="57" y="67.9141"/><text fill="#000000" font-family="sans-serif" font-size="14" lengthAdjust="spacing" textLength="63" x="69" y="75.1426">double _b</text><line style="stroke:#181818;stroke-width:0.5;" x1="50" x2="255" y1="82.2188" y2="82.2188"/><ellipse cx="60" cy="96.5234" fill="#84BE84" rx="3" ry="3" style="stroke:#038048;stroke-width:1.0;"/><text fill="#000000" font-family="sans-serif" font-size="14" lengthAdjust="spacing" textLength="82" x="69" y="100.752">Calculator1()</text><ellipse cx="60" cy="114.1328" fill="#84BE84" rx="3" ry="3" style="stroke:#038048;stroke-width:1.0;"/><text fill="#000000" font-family="sans-serif" font-size="14" lengthAdjust="spacing" textLength="181" x="69" y="118.3613">void SetOperandA(double a)</text><ellipse cx="60" cy="131.7422" fill="#84BE84" rx="3" ry="3" style="stroke:#038048;stroke-width:1.0;"/><text fill="#000000" font-family="sans-serif" font-size="14" lengthAdjust="spacing" textLength="181" x="69" y="135.9707">void SetOperandB(double b)</text><ellipse cx="60" cy="149.3516" fill="#84BE84" rx="3" ry="3" style="stroke:#038048;stroke-width:1.0;"/><text fill="#000000" font-family="sans-serif" font-size="14" lengthAdjust="spacing" textLength="82" x="69" y="153.5801">double Add()</text><ellipse cx="60" cy="166.9609" fill="#84BE84" rx="3" ry="3" style="stroke:#038048;stroke-width:1.0;"/><text fill="#000000" font-family="sans-serif" font-size="14" lengthAdjust="spacing" textLength="110" x="69" y="171.1895">double Subtract()</text><ellipse cx="60" cy="184.5703" fill="#84BE84" rx="3" ry="3" style="stroke:#038048;stroke-width:1.0;"/><text fill="#000000" font-family="sans-serif" font-size="14" lengthAdjust="spacing" textLength="104" x="69" y="188.7988">double Multiply()</text><ellipse cx="60" cy="202.1797" fill="#84BE84" rx="3" ry="3" style="stroke:#038048;stroke-width:1.0;"/><text fill="#000000" font-family="sans-serif" font-size="14" lengthAdjust="spacing" textLength="96" x="69" y="206.4082">double Divide()</text></g><!--MD5=[bf3437e50a88a6003a87b1748df3ca18]
class Calculator2--><g id="elem_Calculator2"><rect codeLine="14" fill="#F1F1F1" height="136.0469" id="Calculator2" rx="2.5" ry="2.5" style="stroke:#181818;stroke-width:0.5;" width="254" x="291.5" y="42"/><ellipse cx="378.25" cy="58" fill="#ADD1B2" rx="11" ry="11" style="stroke:#181818;stroke-width:1.0;"/><path d="M381.0156,53.875 Q381.1719,53.6563 381.3594,53.5469 Q381.5469,53.4375 381.7656,53.4375 Q382.1406,53.4375 382.375,53.6953 Q382.6094,53.9531 382.6094,54.5625 L382.6094,56.0156 Q382.6094,56.625 382.375,56.8906 Q382.1406,57.1563 381.7656,57.1563 Q381.4219,57.1563 381.2188,56.9531 Q381.0156,56.7656 380.9063,56.25 Q380.8594,55.8906 380.6719,55.7031 Q380.3438,55.3281 379.7344,55.1094 Q379.125,54.8906 378.5,54.8906 Q377.7344,54.8906 377.1016,55.2188 Q376.4688,55.5469 375.9766,56.2969 Q375.4844,57.0469 375.4844,58.0781 L375.4844,59.1719 Q375.4844,60.4063 376.375,61.2266 Q377.2656,62.0469 378.8594,62.0469 Q379.7969,62.0469 380.4531,61.7969 Q380.8438,61.6406 381.2656,61.2031 Q381.5313,60.9375 381.6797,60.8594 Q381.8281,60.7813 382.0313,60.7813 Q382.3594,60.7813 382.6172,61.0391 Q382.875,61.2969 382.875,61.6406 Q382.875,61.9844 382.5313,62.3906 Q382.0313,62.9688 381.2344,63.2969 Q380.1563,63.75 378.8594,63.75 Q377.3438,63.75 376.1406,63.125 Q375.1563,62.625 374.4688,61.5547 Q373.7813,60.4844 373.7813,59.2031 L373.7813,58.0469 Q373.7813,56.7188 374.3984,55.5703 Q375.0156,54.4219 376.1094,53.8047 Q377.2031,53.1875 378.4375,53.1875 Q379.1719,53.1875 379.8203,53.3516 Q380.4688,53.5156 381.0156,53.875 Z " fill="#000000"/><text fill="#000000" font-family="sans-serif" font-size="14" lengthAdjust="spacing" textLength="72" x="398.75" y="63.7285">Calculator2</text><line style="stroke:#181818;stroke-width:0.5;" x1="292.5" x2="544.5" y1="74" y2="74"/><line style="stroke:#181818;stroke-width:0.5;" x1="292.5" x2="544.5" y1="82" y2="82"/><ellipse cx="302.5" cy="96.3047" fill="#84BE84" rx="3" ry="3" style="stroke:#038048;stroke-width:1.0;"/><text fill="#000000" font-family="sans-serif" font-size="14" lengthAdjust="spacing" textLength="82" x="311.5" y="100.5332">Calculator2()</text><ellipse cx="302.5" cy="113.9141" fill="#84BE84" rx="3" ry="3" style="stroke:#038048;stroke-width:1.0;"/><text fill="#000000" font-family="sans-serif" font-size="14" lengthAdjust="spacing" textLength="200" x="311.5" y="118.1426">double Add(double a, double b)</text><ellipse cx="302.5" cy="131.5234" fill="#84BE84" rx="3" ry="3" style="stroke:#038048;stroke-width:1.0;"/><text fill="#000000" font-family="sans-serif" font-size="14" lengthAdjust="spacing" textLength="228" x="311.5" y="135.752">double Subtract(double a, double b)</text><ellipse cx="302.5" cy="149.1328" fill="#84BE84" rx="3" ry="3" style="stroke:#038048;stroke-width:1.0;"/><text fill="#000000" font-family="sans-serif" font-size="14" lengthAdjust="spacing" textLength="222" x="311.5" y="153.3613">double Multiply(double a, double b)</text><ellipse cx="302.5" cy="166.7422" fill="#84BE84" rx="3" ry="3" style="stroke:#038048;stroke-width:1.0;"/><text fill="#000000" font-family="sans-serif" font-size="14" lengthAdjust="spacing" textLength="214" x="311.5" y="170.9707">double Divide(double a, double b)</text></g><!--MD5=[f4332d2a953ff60c751e43beafaedb5a]
class Calculator3--><g id="elem_Calculator3"><rect codeLine="22" fill="#F1F1F1" height="118.4375" id="Calculator3" rx="2.5" ry="2.5" style="stroke:#181818;stroke-width:0.5;" width="291" x="7" y="273"/><ellipse cx="112.25" cy="289" fill="#ADD1B2" rx="11" ry="11" style="stroke:#181818;stroke-width:1.0;"/><path d="M115.0156,284.875 Q115.1719,284.6563 115.3594,284.5469 Q115.5469,284.4375 115.7656,284.4375 Q116.1406,284.4375 116.375,284.6953 Q116.6094,284.9531 116.6094,285.5625 L116.6094,287.0156 Q116.6094,287.625 116.375,287.8906 Q116.1406,288.1563 115.7656,288.1563 Q115.4219,288.1563 115.2188,287.9531 Q115.0156,287.7656 114.9063,287.25 Q114.8594,286.8906 114.6719,286.7031 Q114.3438,286.3281 113.7344,286.1094 Q113.125,285.8906 112.5,285.8906 Q111.7344,285.8906 111.1016,286.2188 Q110.4688,286.5469 109.9766,287.2969 Q109.4844,288.0469 109.4844,289.0781 L109.4844,290.1719 Q109.4844,291.4063 110.375,292.2266 Q111.2656,293.0469 112.8594,293.0469 Q113.7969,293.0469 114.4531,292.7969 Q114.8438,292.6406 115.2656,292.2031 Q115.5313,291.9375 115.6797,291.8594 Q115.8281,291.7813 116.0313,291.7813 Q116.3594,291.7813 116.6172,292.0391 Q116.875,292.2969 116.875,292.6406 Q116.875,292.9844 116.5313,293.3906 Q116.0313,293.9688 115.2344,294.2969 Q114.1563,294.75 112.8594,294.75 Q111.3438,294.75 110.1406,294.125 Q109.1563,293.625 108.4688,292.5547 Q107.7813,291.4844 107.7813,290.2031 L107.7813,289.0469 Q107.7813,287.7188 108.3984,286.5703 Q109.0156,285.4219 110.1094,284.8047 Q111.2031,284.1875 112.4375,284.1875 Q113.1719,284.1875 113.8203,284.3516 Q114.4688,284.5156 115.0156,284.875 Z " fill="#000000"/><text fill="#000000" font-family="sans-serif" font-size="14" lengthAdjust="spacing" textLength="72" x="132.75" y="294.7285">Calculator3</text><line style="stroke:#181818;stroke-width:0.5;" x1="8" x2="297" y1="305" y2="305"/><line style="stroke:#181818;stroke-width:0.5;" x1="8" x2="297" y1="313" y2="313"/><ellipse cx="18" cy="327.3047" fill="#84BE84" rx="3" ry="3" style="stroke:#038048;stroke-width:1.0;"/><text fill="#000000" font-family="sans-serif" font-size="14" lengthAdjust="spacing" text-decoration="underline" textLength="237" x="27" y="331.5332">static double Add(double a, double b)</text><ellipse cx="18" cy="344.9141" fill="#84BE84" rx="3" ry="3" style="stroke:#038048;stroke-width:1.0;"/><text fill="#000000" font-family="sans-serif" font-size="14" lengthAdjust="spacing" text-decoration="underline" textLength="265" x="27" y="349.1426">static double Subtract(double a, double b)</text><ellipse cx="18" cy="362.5234" fill="#84BE84" rx="3" ry="3" style="stroke:#038048;stroke-width:1.0;"/><text fill="#000000" font-family="sans-serif" font-size="14" lengthAdjust="spacing" text-decoration="underline" textLength="259" x="27" y="366.752">static double Multiply(double a, double b)</text><ellipse cx="18" cy="380.1328" fill="#84BE84" rx="3" ry="3" style="stroke:#038048;stroke-width:1.0;"/><text fill="#000000" font-family="sans-serif" font-size="14" lengthAdjust="spacing" text-decoration="underline" textLength="251" x="27" y="384.3613">static double Divide(double a, double b)</text></g><!--MD5=[d06e202c8f424f6cc5aefaed7ce64284]
@startuml

class Calculator1 {
  - double _a
  - double _b
  + Calculator1()
  + void SetOperandA(double a)
  + void SetOperandB(double b) 
  + double Add()
  + double Subtract()
  + double Multiply()
  + double Divide()
}

class Calculator2 {
  + Calculator2()
  + double Add(double a, double b)
  + double Subtract(double a, double b)
  + double Multiply(double a, double b)
  + double Divide(double a, double b)
}

class Calculator3 {
  + {static} static double Add(double a, double b)
  + {static} static double Subtract(double a, double b)
  + {static} static double Multiply(double a, double b)
  + {static} static double Divide(double a, double b)
}



@enduml

PlantUML version 1.2022.7(Mon Aug 22 19:01:30 CEST 2022)
(GPL source distribution)
Java Runtime: Java(TM) SE Runtime Environment
JVM: Java HotSpot(TM) 64-Bit Server VM
Default Encoding: Cp1252
Language: da
Country: DK
--></g></svg>