<?xml version="1.0" encoding="UTF-8" standalone="no"?><svg xmlns="http://www.w3.org/2000/svg" xmlns:xlink="http://www.w3.org/1999/xlink" contentStyleType="text/css" height="346px" preserveAspectRatio="none" style="width:501px;height:346px;background:#FFFFFF;" version="1.1" viewBox="0 0 501 346" width="501px" zoomAndPan="magnify"><defs/><g><!--MD5=[d6181cb537bdc20c0a3007a98a56832d]
class Student--><g id="elem_Student"><rect codeLine="2" fill="#F1F1F1" height="136.0469" id="Student" rx="2.5" ry="2.5" style="stroke:#181818;stroke-width:0.5;" width="195" x="7" y="7"/><ellipse cx="75.75" cy="23" fill="#ADD1B2" rx="11" ry="11" style="stroke:#181818;stroke-width:1.0;"/><path d="M78.5156,18.875 Q78.6719,18.6563 78.8594,18.5469 Q79.0469,18.4375 79.2656,18.4375 Q79.6406,18.4375 79.875,18.6953 Q80.1094,18.9531 80.1094,19.5625 L80.1094,21.0156 Q80.1094,21.625 79.875,21.8906 Q79.6406,22.1563 79.2656,22.1563 Q78.9219,22.1563 78.7188,21.9531 Q78.5156,21.7656 78.4063,21.25 Q78.3594,20.8906 78.1719,20.7031 Q77.8438,20.3281 77.2344,20.1094 Q76.625,19.8906 76,19.8906 Q75.2344,19.8906 74.6016,20.2188 Q73.9688,20.5469 73.4766,21.2969 Q72.9844,22.0469 72.9844,23.0781 L72.9844,24.1719 Q72.9844,25.4063 73.875,26.2266 Q74.7656,27.0469 76.3594,27.0469 Q77.2969,27.0469 77.9531,26.7969 Q78.3438,26.6406 78.7656,26.2031 Q79.0313,25.9375 79.1797,25.8594 Q79.3281,25.7813 79.5313,25.7813 Q79.8594,25.7813 80.1172,26.0391 Q80.375,26.2969 80.375,26.6406 Q80.375,26.9844 80.0313,27.3906 Q79.5313,27.9688 78.7344,28.2969 Q77.6563,28.75 76.3594,28.75 Q74.8438,28.75 73.6406,28.125 Q72.6563,27.625 71.9688,26.5547 Q71.2813,25.4844 71.2813,24.2031 L71.2813,23.0469 Q71.2813,21.7188 71.8984,20.5703 Q72.5156,19.4219 73.6094,18.8047 Q74.7031,18.1875 75.9375,18.1875 Q76.6719,18.1875 77.3203,18.3516 Q77.9688,18.5156 78.5156,18.875 Z " fill="#000000"/><text fill="#000000" font-family="sans-serif" font-size="14" lengthAdjust="spacing" textLength="49" x="96.25" y="28.7285">Student</text><line style="stroke:#181818;stroke-width:0.5;" x1="8" x2="201" y1="39" y2="39"/><rect fill="none" height="6" style="stroke:#C82930;stroke-width:1.0;" width="6" x="15" y="50.3047"/><text fill="#000000" font-family="sans-serif" font-size="14" lengthAdjust="spacing" textLength="84" x="27" y="57.5332">String _name</text><rect fill="none" height="6" style="stroke:#C82930;stroke-width:1.0;" width="6" x="15" y="67.9141"/><text fill="#000000" font-family="sans-serif" font-size="14" lengthAdjust="spacing" textLength="51" x="27" y="75.1426">int _age</text><rect fill="none" height="6" style="stroke:#C82930;stroke-width:1.0;" width="6" x="15" y="85.5234"/><text fill="#000000" font-family="sans-serif" font-size="14" lengthAdjust="spacing" textLength="146" x="27" y="92.752">List&lt;Course&gt; _courses</text><line style="stroke:#181818;stroke-width:0.5;" x1="8" x2="201" y1="99.8281" y2="99.8281"/><ellipse cx="18" cy="114.1328" fill="#84BE84" rx="3" ry="3" style="stroke:#038048;stroke-width:1.0;"/><text fill="#000000" font-family="sans-serif" font-size="14" lengthAdjust="spacing" textLength="169" x="27" y="118.3613">void Enroll(Course course)</text><ellipse cx="18" cy="131.7422" fill="#84BE84" rx="3" ry="3" style="stroke:#038048;stroke-width:1.0;"/><text fill="#000000" font-family="sans-serif" font-size="14" lengthAdjust="spacing" textLength="164" x="27" y="135.9707">void Drop(Course course)</text></g><!--MD5=[4066b0363c5a91ff3b6e03e0428953a9]
class Course--><g id="elem_Course"><rect codeLine="10" fill="#F1F1F1" height="136.0469" id="Course" rx="2.5" ry="2.5" style="stroke:#181818;stroke-width:0.5;" width="267" x="101" y="203"/><ellipse cx="207.25" cy="219" fill="#ADD1B2" rx="11" ry="11" style="stroke:#181818;stroke-width:1.0;"/><path d="M210.0156,214.875 Q210.1719,214.6563 210.3594,214.5469 Q210.5469,214.4375 210.7656,214.4375 Q211.1406,214.4375 211.375,214.6953 Q211.6094,214.9531 211.6094,215.5625 L211.6094,217.0156 Q211.6094,217.625 211.375,217.8906 Q211.1406,218.1563 210.7656,218.1563 Q210.4219,218.1563 210.2188,217.9531 Q210.0156,217.7656 209.9063,217.25 Q209.8594,216.8906 209.6719,216.7031 Q209.3438,216.3281 208.7344,216.1094 Q208.125,215.8906 207.5,215.8906 Q206.7344,215.8906 206.1016,216.2188 Q205.4688,216.5469 204.9766,217.2969 Q204.4844,218.0469 204.4844,219.0781 L204.4844,220.1719 Q204.4844,221.4063 205.375,222.2266 Q206.2656,223.0469 207.8594,223.0469 Q208.7969,223.0469 209.4531,222.7969 Q209.8438,222.6406 210.2656,222.2031 Q210.5313,221.9375 210.6797,221.8594 Q210.8281,221.7813 211.0313,221.7813 Q211.3594,221.7813 211.6172,222.0391 Q211.875,222.2969 211.875,222.6406 Q211.875,222.9844 211.5313,223.3906 Q211.0313,223.9688 210.2344,224.2969 Q209.1563,224.75 207.8594,224.75 Q206.3438,224.75 205.1406,224.125 Q204.1563,223.625 203.4688,222.5547 Q202.7813,221.4844 202.7813,220.2031 L202.7813,219.0469 Q202.7813,217.7188 203.3984,216.5703 Q204.0156,215.4219 205.1094,214.8047 Q206.2031,214.1875 207.4375,214.1875 Q208.1719,214.1875 208.8203,214.3516 Q209.4688,214.5156 210.0156,214.875 Z " fill="#000000"/><text fill="#000000" font-family="sans-serif" font-size="14" lengthAdjust="spacing" textLength="46" x="227.75" y="224.7285">Course</text><line style="stroke:#181818;stroke-width:0.5;" x1="102" x2="367" y1="235" y2="235"/><rect fill="none" height="6" style="stroke:#C82930;stroke-width:1.0;" width="6" x="109" y="246.3047"/><text fill="#000000" font-family="sans-serif" font-size="14" lengthAdjust="spacing" textLength="84" x="121" y="253.5332">String _name</text><rect fill="none" height="6" style="stroke:#C82930;stroke-width:1.0;" width="6" x="109" y="263.9141"/><text fill="#000000" font-family="sans-serif" font-size="14" lengthAdjust="spacing" textLength="69" x="121" y="271.1426">int _credits</text><rect fill="none" height="6" style="stroke:#C82930;stroke-width:1.0;" width="6" x="109" y="281.5234"/><text fill="#000000" font-family="sans-serif" font-size="14" lengthAdjust="spacing" textLength="153" x="121" y="288.752">List&lt;Student&gt; _students</text><line style="stroke:#181818;stroke-width:0.5;" x1="102" x2="367" y1="295.8281" y2="295.8281"/><ellipse cx="112" cy="310.1328" fill="#84BE84" rx="3" ry="3" style="stroke:#038048;stroke-width:1.0;"/><text fill="#000000" font-family="sans-serif" font-size="14" lengthAdjust="spacing" textLength="214" x="121" y="314.3613">void AddStudent(Student student)</text><ellipse cx="112" cy="327.7422" fill="#84BE84" rx="3" ry="3" style="stroke:#038048;stroke-width:1.0;"/><text fill="#000000" font-family="sans-serif" font-size="14" lengthAdjust="spacing" textLength="241" x="121" y="331.9707">void RemoveStudent(Student student)</text></g><!--MD5=[10a9fff9df9a76a22f65fd5d58adb785]
class School--><g id="elem_School"><rect codeLine="18" fill="#F1F1F1" height="118.4375" id="School" rx="2.5" ry="2.5" style="stroke:#181818;stroke-width:0.5;" width="257" x="237" y="16"/><ellipse cx="339.75" cy="32" fill="#ADD1B2" rx="11" ry="11" style="stroke:#181818;stroke-width:1.0;"/><path d="M342.5156,27.875 Q342.6719,27.6563 342.8594,27.5469 Q343.0469,27.4375 343.2656,27.4375 Q343.6406,27.4375 343.875,27.6953 Q344.1094,27.9531 344.1094,28.5625 L344.1094,30.0156 Q344.1094,30.625 343.875,30.8906 Q343.6406,31.1563 343.2656,31.1563 Q342.9219,31.1563 342.7188,30.9531 Q342.5156,30.7656 342.4063,30.25 Q342.3594,29.8906 342.1719,29.7031 Q341.8438,29.3281 341.2344,29.1094 Q340.625,28.8906 340,28.8906 Q339.2344,28.8906 338.6016,29.2188 Q337.9688,29.5469 337.4766,30.2969 Q336.9844,31.0469 336.9844,32.0781 L336.9844,33.1719 Q336.9844,34.4063 337.875,35.2266 Q338.7656,36.0469 340.3594,36.0469 Q341.2969,36.0469 341.9531,35.7969 Q342.3438,35.6406 342.7656,35.2031 Q343.0313,34.9375 343.1797,34.8594 Q343.3281,34.7813 343.5313,34.7813 Q343.8594,34.7813 344.1172,35.0391 Q344.375,35.2969 344.375,35.6406 Q344.375,35.9844 344.0313,36.3906 Q343.5313,36.9688 342.7344,37.2969 Q341.6563,37.75 340.3594,37.75 Q338.8438,37.75 337.6406,37.125 Q336.6563,36.625 335.9688,35.5547 Q335.2813,34.4844 335.2813,33.2031 L335.2813,32.0469 Q335.2813,30.7188 335.8984,29.5703 Q336.5156,28.4219 337.6094,27.8047 Q338.7031,27.1875 339.9375,27.1875 Q340.6719,27.1875 341.3203,27.3516 Q341.9688,27.5156 342.5156,27.875 Z " fill="#000000"/><text fill="#000000" font-family="sans-serif" font-size="14" lengthAdjust="spacing" textLength="43" x="360.25" y="37.7285">School</text><line style="stroke:#181818;stroke-width:0.5;" x1="238" x2="493" y1="48" y2="48"/><rect fill="none" height="6" style="stroke:#C82930;stroke-width:1.0;" width="6" x="245" y="59.3047"/><text fill="#000000" font-family="sans-serif" font-size="14" lengthAdjust="spacing" textLength="84" x="257" y="66.5332">String _name</text><rect fill="none" height="6" style="stroke:#C82930;stroke-width:1.0;" width="6" x="245" y="76.9141"/><text fill="#000000" font-family="sans-serif" font-size="14" lengthAdjust="spacing" textLength="146" x="257" y="84.1426">List&lt;Course&gt; _courses</text><line style="stroke:#181818;stroke-width:0.5;" x1="238" x2="493" y1="91.2188" y2="91.2188"/><ellipse cx="248" cy="105.5234" fill="#84BE84" rx="3" ry="3" style="stroke:#038048;stroke-width:1.0;"/><text fill="#000000" font-family="sans-serif" font-size="14" lengthAdjust="spacing" textLength="204" x="257" y="109.752">void AddCourse(Course course)</text><ellipse cx="248" cy="123.1328" fill="#84BE84" rx="3" ry="3" style="stroke:#038048;stroke-width:1.0;"/><text fill="#000000" font-family="sans-serif" font-size="14" lengthAdjust="spacing" textLength="231" x="257" y="127.3613">void RemoveCourse(Course course)</text></g><!--MD5=[f269af3ec9e2ea0e7ee96f710d328ae7]
link Student to Course--><g id="link_Student_Course"><path codeLine="25" d="M156.1038,153.0063 C156.1038,153.0063 182.8962,192.9937 182.8962,192.9937 " fill="none" id="Student-Course" style="stroke:#181818;stroke-width:1.0;"/><polygon fill="#181818" points="189.58,202.96,189.5602,195.7489,182.8962,192.9937,182.916,200.2048,189.58,202.96" style="stroke:#181818;stroke-width:1.0;"/><polygon fill="none" points="149.42,143.04,149.4398,150.2511,156.1038,153.0063,156.084,145.7952,149.42,143.04" style="stroke:#181818;stroke-width:1.0;"/><text fill="#000000" font-family="sans-serif" font-size="13" lengthAdjust="spacing" textLength="7" x="146.6914" y="164.3925">1</text><text fill="#000000" font-family="sans-serif" font-size="13" lengthAdjust="spacing" textLength="5" x="179.3934" y="192.1549">*</text></g><!--MD5=[a59b95e406da0cc8de8f7212fd99531a]
link School to Course--><g id="link_School_Course"><path codeLine="26" d="M319.4768,144.1498 C319.4768,144.1498 286.4741,193.0341 286.4741,193.0341 " fill="none" id="School-Course" style="stroke:#181818;stroke-width:1.0;"/><polygon fill="none" points="279.76,202.98,286.4324,200.2451,286.4741,193.0341,279.8018,195.769,279.76,202.98" style="stroke:#181818;stroke-width:1.0;"/><polygon fill="#181818" points="326.2,134.21,319.5252,136.9388,319.4768,144.1498,326.1517,141.4209,326.2,134.21" style="stroke:#181818;stroke-width:1.0;"/><text fill="#000000" font-family="sans-serif" font-size="13" lengthAdjust="spacing" textLength="7" x="313.9838" y="155.8911">1</text><text fill="#000000" font-family="sans-serif" font-size="13" lengthAdjust="spacing" textLength="5" x="279.4369" y="192.1771">*</text></g><!--MD5=[21bc7a970363bc69918ade8a17344141]
@startuml

class Student {
  -String _name
  -int _age
  -List<Course> _courses
  +void Enroll(Course course)
  +void Drop(Course course)
}

class Course {
  -String _name
  -int _credits
  -List<Student> _students
  +void AddStudent(Student student)
  +void RemoveStudent(Student student)
}

class School {
  -String _name
  -List<Course> _courses
  +void AddCourse(Course course)
  +void RemoveCourse(Course course)
}

Student "1" o- -* "*" Course
School "1" *- -o "*" Course

@enduml

PlantUML version 1.2022.7(Mon Aug 22 19:01:30 CEST 2022)
(GPL source distribution)
Java Runtime: Java(TM) SE Runtime Environment
JVM: Java HotSpot(TM) 64-Bit Server VM
Default Encoding: Cp1252
Language: da
Country: DK
--></g></svg>