<?xml version="1.0" encoding="UTF-8" standalone="no"?><svg xmlns="http://www.w3.org/2000/svg" xmlns:xlink="http://www.w3.org/1999/xlink" contentStyleType="text/css" height="630px" preserveAspectRatio="none" style="width:380px;height:630px;background:#FFFFFF;" version="1.1" viewBox="0 0 380 630" width="380px" zoomAndPan="magnify"><defs/><g><!--MD5=[f55d592c5130daf0ceebcd2d990036d6]
class Bank--><g id="elem_Bank"><rect codeLine="2" fill="#F1F1F1" height="188.875" id="Bank" rx="2.5" ry="2.5" style="stroke:#181818;stroke-width:0.5;" width="305" x="37.5" y="203"/><ellipse cx="169.75" cy="219" fill="#ADD1B2" rx="11" ry="11" style="stroke:#181818;stroke-width:1.0;"/><path d="M172.5156,214.875 Q172.6719,214.6563 172.8594,214.5469 Q173.0469,214.4375 173.2656,214.4375 Q173.6406,214.4375 173.875,214.6953 Q174.1094,214.9531 174.1094,215.5625 L174.1094,217.0156 Q174.1094,217.625 173.875,217.8906 Q173.6406,218.1563 173.2656,218.1563 Q172.9219,218.1563 172.7188,217.9531 Q172.5156,217.7656 172.4063,217.25 Q172.3594,216.8906 172.1719,216.7031 Q171.8438,216.3281 171.2344,216.1094 Q170.625,215.8906 170,215.8906 Q169.2344,215.8906 168.6016,216.2188 Q167.9688,216.5469 167.4766,217.2969 Q166.9844,218.0469 166.9844,219.0781 L166.9844,220.1719 Q166.9844,221.4063 167.875,222.2266 Q168.7656,223.0469 170.3594,223.0469 Q171.2969,223.0469 171.9531,222.7969 Q172.3438,222.6406 172.7656,222.2031 Q173.0313,221.9375 173.1797,221.8594 Q173.3281,221.7813 173.5313,221.7813 Q173.8594,221.7813 174.1172,222.0391 Q174.375,222.2969 174.375,222.6406 Q174.375,222.9844 174.0313,223.3906 Q173.5313,223.9688 172.7344,224.2969 Q171.6563,224.75 170.3594,224.75 Q168.8438,224.75 167.6406,224.125 Q166.6563,223.625 165.9688,222.5547 Q165.2813,221.4844 165.2813,220.2031 L165.2813,219.0469 Q165.2813,217.7188 165.8984,216.5703 Q166.5156,215.4219 167.6094,214.8047 Q168.7031,214.1875 169.9375,214.1875 Q170.6719,214.1875 171.3203,214.3516 Q171.9688,214.5156 172.5156,214.875 Z " fill="#000000"/><text fill="#000000" font-family="sans-serif" font-size="14" lengthAdjust="spacing" textLength="32" x="190.25" y="224.7285">Bank</text><line style="stroke:#181818;stroke-width:0.5;" x1="38.5" x2="341.5" y1="235" y2="235"/><rect fill="none" height="6" style="stroke:#C82930;stroke-width:1.0;" width="6" x="45.5" y="246.3047"/><text fill="#000000" font-family="sans-serif" font-size="14" lengthAdjust="spacing" textLength="82" x="57.5" y="253.5332">string _name</text><rect fill="none" height="6" style="stroke:#C82930;stroke-width:1.0;" width="6" x="45.5" y="263.9141"/><text fill="#000000" font-family="sans-serif" font-size="14" lengthAdjust="spacing" textLength="98" x="57.5" y="271.1426">string _address</text><rect fill="none" height="6" style="stroke:#C82930;stroke-width:1.0;" width="6" x="45.5" y="281.5234"/><text fill="#000000" font-family="sans-serif" font-size="14" lengthAdjust="spacing" textLength="158" x="57.5" y="288.752">List&lt;Account&gt; _accounts</text><rect fill="none" height="6" style="stroke:#C82930;stroke-width:1.0;" width="6" x="45.5" y="299.1328"/><text fill="#000000" font-family="sans-serif" font-size="14" lengthAdjust="spacing" textLength="109" x="57.5" y="306.3613">List&lt;ATM&gt; _atms</text><line style="stroke:#181818;stroke-width:0.5;" x1="38.5" x2="341.5" y1="313.4375" y2="313.4375"/><ellipse cx="48.5" cy="327.7422" fill="#84BE84" rx="3" ry="3" style="stroke:#038048;stroke-width:1.0;"/><text fill="#000000" font-family="sans-serif" font-size="14" lengthAdjust="spacing" textLength="214" x="57.5" y="331.9707">Bank(string name, string address)</text><ellipse cx="48.5" cy="345.3516" fill="#84BE84" rx="3" ry="3" style="stroke:#038048;stroke-width:1.0;"/><text fill="#000000" font-family="sans-serif" font-size="14" lengthAdjust="spacing" textLength="221" x="57.5" y="349.5801">void AddAccount(Account account)</text><ellipse cx="48.5" cy="362.9609" fill="#84BE84" rx="3" ry="3" style="stroke:#038048;stroke-width:1.0;"/><text fill="#000000" font-family="sans-serif" font-size="14" lengthAdjust="spacing" textLength="279" x="57.5" y="367.1895">Account GetAccount(String accountNumber)</text><ellipse cx="48.5" cy="380.5703" fill="#84BE84" rx="3" ry="3" style="stroke:#038048;stroke-width:1.0;"/><text fill="#000000" font-family="sans-serif" font-size="14" lengthAdjust="spacing" textLength="241" x="57.5" y="384.7988">void UpdateAccount(Account account)</text></g><!--MD5=[f9a29335b499db729be669fd1bd54958]
class Account--><g id="elem_Account"><rect codeLine="13" fill="#F1F1F1" height="171.2656" id="Account" rx="2.5" ry="2.5" style="stroke:#181818;stroke-width:0.5;" width="286" x="47" y="452"/><ellipse cx="160.25" cy="468" fill="#ADD1B2" rx="11" ry="11" style="stroke:#181818;stroke-width:1.0;"/><path d="M163.0156,463.875 Q163.1719,463.6563 163.3594,463.5469 Q163.5469,463.4375 163.7656,463.4375 Q164.1406,463.4375 164.375,463.6953 Q164.6094,463.9531 164.6094,464.5625 L164.6094,466.0156 Q164.6094,466.625 164.375,466.8906 Q164.1406,467.1563 163.7656,467.1563 Q163.4219,467.1563 163.2188,466.9531 Q163.0156,466.7656 162.9063,466.25 Q162.8594,465.8906 162.6719,465.7031 Q162.3438,465.3281 161.7344,465.1094 Q161.125,464.8906 160.5,464.8906 Q159.7344,464.8906 159.1016,465.2188 Q158.4688,465.5469 157.9766,466.2969 Q157.4844,467.0469 157.4844,468.0781 L157.4844,469.1719 Q157.4844,470.4063 158.375,471.2266 Q159.2656,472.0469 160.8594,472.0469 Q161.7969,472.0469 162.4531,471.7969 Q162.8438,471.6406 163.2656,471.2031 Q163.5313,470.9375 163.6797,470.8594 Q163.8281,470.7813 164.0313,470.7813 Q164.3594,470.7813 164.6172,471.0391 Q164.875,471.2969 164.875,471.6406 Q164.875,471.9844 164.5313,472.3906 Q164.0313,472.9688 163.2344,473.2969 Q162.1563,473.75 160.8594,473.75 Q159.3438,473.75 158.1406,473.125 Q157.1563,472.625 156.4688,471.5547 Q155.7813,470.4844 155.7813,469.2031 L155.7813,468.0469 Q155.7813,466.7188 156.3984,465.5703 Q157.0156,464.4219 158.1094,463.8047 Q159.2031,463.1875 160.4375,463.1875 Q161.1719,463.1875 161.8203,463.3516 Q162.4688,463.5156 163.0156,463.875 Z " fill="#000000"/><text fill="#000000" font-family="sans-serif" font-size="14" lengthAdjust="spacing" textLength="51" x="180.75" y="473.7285">Account</text><line style="stroke:#181818;stroke-width:0.5;" x1="48" x2="332" y1="484" y2="484"/><rect fill="none" height="6" style="stroke:#C82930;stroke-width:1.0;" width="6" x="55" y="495.3047"/><text fill="#000000" font-family="sans-serif" font-size="14" lengthAdjust="spacing" textLength="108" x="67" y="502.5332">string _accountId</text><rect fill="none" height="6" style="stroke:#C82930;stroke-width:1.0;" width="6" x="55" y="512.9141"/><text fill="#000000" font-family="sans-serif" font-size="14" lengthAdjust="spacing" textLength="174" x="67" y="520.1426">string _accountHolderName</text><rect fill="none" height="6" style="stroke:#C82930;stroke-width:1.0;" width="6" x="55" y="530.5234"/><text fill="#000000" font-family="sans-serif" font-size="14" lengthAdjust="spacing" textLength="105" x="67" y="537.752">double _balance</text><line style="stroke:#181818;stroke-width:0.5;" x1="48" x2="332" y1="544.8281" y2="544.8281"/><ellipse cx="58" cy="559.1328" fill="#84BE84" rx="3" ry="3" style="stroke:#038048;stroke-width:1.0;"/><text fill="#000000" font-family="sans-serif" font-size="14" lengthAdjust="spacing" textLength="260" x="67" y="563.3613">Account(string accountName, double bal)</text><ellipse cx="58" cy="576.7422" fill="#84BE84" rx="3" ry="3" style="stroke:#038048;stroke-width:1.0;"/><text fill="#000000" font-family="sans-serif" font-size="14" lengthAdjust="spacing" textLength="134" x="67" y="580.9707">string GetAccountId()</text><ellipse cx="58" cy="594.3516" fill="#84BE84" rx="3" ry="3" style="stroke:#038048;stroke-width:1.0;"/><text fill="#000000" font-family="sans-serif" font-size="14" lengthAdjust="spacing" textLength="182" x="67" y="598.5801">void Deposit(double amount)</text><ellipse cx="58" cy="611.9609" fill="#84BE84" rx="3" ry="3" style="stroke:#038048;stroke-width:1.0;"/><text fill="#000000" font-family="sans-serif" font-size="14" lengthAdjust="spacing" textLength="192" x="67" y="616.1895">void Withdraw(double amount)</text></g><!--MD5=[549ff358cecbd916f4ce2511ce44e009]
class ATM--><g id="elem_ATM"><rect codeLine="23" fill="#F1F1F1" height="136.0469" id="ATM" rx="2.5" ry="2.5" style="stroke:#181818;stroke-width:0.5;" width="366" x="7" y="7"/><ellipse cx="171.25" cy="23" fill="#ADD1B2" rx="11" ry="11" style="stroke:#181818;stroke-width:1.0;"/><path d="M174.0156,18.875 Q174.1719,18.6563 174.3594,18.5469 Q174.5469,18.4375 174.7656,18.4375 Q175.1406,18.4375 175.375,18.6953 Q175.6094,18.9531 175.6094,19.5625 L175.6094,21.0156 Q175.6094,21.625 175.375,21.8906 Q175.1406,22.1563 174.7656,22.1563 Q174.4219,22.1563 174.2188,21.9531 Q174.0156,21.7656 173.9063,21.25 Q173.8594,20.8906 173.6719,20.7031 Q173.3438,20.3281 172.7344,20.1094 Q172.125,19.8906 171.5,19.8906 Q170.7344,19.8906 170.1016,20.2188 Q169.4688,20.5469 168.9766,21.2969 Q168.4844,22.0469 168.4844,23.0781 L168.4844,24.1719 Q168.4844,25.4063 169.375,26.2266 Q170.2656,27.0469 171.8594,27.0469 Q172.7969,27.0469 173.4531,26.7969 Q173.8438,26.6406 174.2656,26.2031 Q174.5313,25.9375 174.6797,25.8594 Q174.8281,25.7813 175.0313,25.7813 Q175.3594,25.7813 175.6172,26.0391 Q175.875,26.2969 175.875,26.6406 Q175.875,26.9844 175.5313,27.3906 Q175.0313,27.9688 174.2344,28.2969 Q173.1563,28.75 171.8594,28.75 Q170.3438,28.75 169.1406,28.125 Q168.1563,27.625 167.4688,26.5547 Q166.7813,25.4844 166.7813,24.2031 L166.7813,23.0469 Q166.7813,21.7188 167.3984,20.5703 Q168.0156,19.4219 169.1094,18.8047 Q170.2031,18.1875 171.4375,18.1875 Q172.1719,18.1875 172.8203,18.3516 Q173.4688,18.5156 174.0156,18.875 Z " fill="#000000"/><text fill="#000000" font-family="sans-serif" font-size="14" lengthAdjust="spacing" textLength="29" x="191.75" y="28.7285">ATM</text><line style="stroke:#181818;stroke-width:0.5;" x1="8" x2="372" y1="39" y2="39"/><rect fill="none" height="6" style="stroke:#C82930;stroke-width:1.0;" width="6" x="15" y="50.3047"/><text fill="#000000" font-family="sans-serif" font-size="14" lengthAdjust="spacing" textLength="96" x="27" y="57.5332">string _location</text><rect fill="none" height="6" style="stroke:#C82930;stroke-width:1.0;" width="6" x="15" y="67.9141"/><text fill="#000000" font-family="sans-serif" font-size="14" lengthAdjust="spacing" textLength="75" x="27" y="75.1426">Bank _bank</text><line style="stroke:#181818;stroke-width:0.5;" x1="8" x2="372" y1="82.2188" y2="82.2188"/><ellipse cx="18" cy="96.5234" fill="#84BE84" rx="3" ry="3" style="stroke:#038048;stroke-width:1.0;"/><text fill="#000000" font-family="sans-serif" font-size="14" lengthAdjust="spacing" textLength="202" x="27" y="100.752">ATM(string location, Bank bank)</text><ellipse cx="18" cy="114.1328" fill="#84BE84" rx="3" ry="3" style="stroke:#038048;stroke-width:1.0;"/><text fill="#000000" font-family="sans-serif" font-size="14" lengthAdjust="spacing" textLength="330" x="27" y="118.3613">void Deposit(String accountNumber, double amount)</text><ellipse cx="18" cy="131.7422" fill="#84BE84" rx="3" ry="3" style="stroke:#038048;stroke-width:1.0;"/><text fill="#000000" font-family="sans-serif" font-size="14" lengthAdjust="spacing" textLength="340" x="27" y="135.9707">void Withdraw(String accountNumber, double amount)</text></g><!--MD5=[c2254cc996f8eee9b09632a573720fa3]
link Bank to Account--><g id="link_Bank_Account"><path codeLine="31" d="M190,404.22 C190,404.22 190,439.76 190,439.76 " fill="none" id="Bank-Account" style="stroke:#181818;stroke-width:1.0;"/><polygon fill="none" points="190,451.76,194,445.76,190,439.76,186,445.76,190,451.76" style="stroke:#181818;stroke-width:1.0;"/><polygon fill="#181818" points="190,392.22,186,398.22,190,404.22,194,398.22,190,392.22" style="stroke:#181818;stroke-width:1.0;"/><text fill="#000000" font-family="sans-serif" font-size="13" lengthAdjust="spacing" textLength="7" x="182.743" y="413.2761">1</text><text fill="#000000" font-family="sans-serif" font-size="13" lengthAdjust="spacing" textLength="5" x="184.7852" y="441.203">*</text></g><!--MD5=[35768a7df592d3b218183efa4e1e00d3]
link ATM to Bank--><g id="link_ATM_Bank"><path codeLine="32" d="M190,155.06 C190,155.06 190,190.95 190,190.95 " fill="none" id="ATM-Bank" style="stroke:#181818;stroke-width:1.0;"/><polygon fill="#181818" points="190,202.95,194,196.95,190,190.95,186,196.95,190,202.95" style="stroke:#181818;stroke-width:1.0;"/><polygon fill="none" points="190,143.06,186,149.06,190,155.06,194,149.06,190,143.06" style="stroke:#181818;stroke-width:1.0;"/><text fill="#000000" font-family="sans-serif" font-size="13" lengthAdjust="spacing" textLength="5" x="184.7422" y="164.4145">*</text><text fill="#000000" font-family="sans-serif" font-size="13" lengthAdjust="spacing" textLength="7" x="182.7211" y="192.2922">1</text></g><!--MD5=[9a8c3ea0c436d76557762a4888809203]
@startuml

class Bank {
  -string _name
  -string _address
  -List<Account> _accounts
  -List<ATM> _atms
  +Bank(string name, string address)
  +void AddAccount(Account account)
  +Account GetAccount(String accountNumber)
  +void UpdateAccount(Account account)
}

class Account {
  -string _accountId
  -string _accountHolderName
  -double _balance
  +Account(string accountName, double bal)
  +string GetAccountId()
  +void Deposit(double amount)
  +void Withdraw(double amount)
}

class ATM {
  -string _location
  -Bank _bank
  +ATM(string location, Bank bank)
  +void Deposit(String accountNumber, double amount)
  +void Withdraw(String accountNumber, double amount)
}

Bank "1" *- -o "*" Account
ATM "*" o- -* "1" Bank

@enduml

PlantUML version 1.2022.7(Mon Aug 22 19:01:30 CEST 2022)
(GPL source distribution)
Java Runtime: Java(TM) SE Runtime Environment
JVM: Java HotSpot(TM) 64-Bit Server VM
Default Encoding: Cp1252
Language: da
Country: DK
--></g></svg>